<svg xmlns="http://www.w3.org/2000/svg" xmlns:xlink="http://www.w3.org/1999/xlink" version="1.1" x="0px" y="0px" viewBox="0 0 100 100" enable-background="new 0 0 100 100" xml:space="preserve"><path d="M59.6,36.8c0.5,0.4,0.8,1,0.8,1.6v2.9v10.9c0,1.6-0.6,3.2-1.6,4.5l-2.2,2.6l-2,25.5c-0.1,0.9-0.8,1.6-1.7,1.6h-5.7  c-0.9,0-1.6-0.7-1.7-1.6l-2-25.5l-2.2-2.6c-1-1.2-1.6-2.8-1.6-4.4V41.3v-2.9c0-0.6,0.3-1.2,0.8-1.6c2.6-2.2,5.5-3.6,6.1-3.9  c0.1,0,0.1-0.1,0.1-0.2v-1.5c-0.4-0.7-0.6-1.4-0.7-2.1c-0.2,0-0.5-0.3-0.9-1.5c-0.4-1.5,0-1.8,0.4-1.8c0,0,0.1,0,0.1,0  c-0.3-0.8-0.3-1.7-0.1-2.4c0.2-0.9,0.7-1.6,1.2-2.2c0.3-0.4,0.7-0.7,1.1-0.9c0.3-0.2,0.7-0.4,1.1-0.6l0,0c0.3-0.1,0.7-0.2,1-0.2  c0.1,0,0.3,0,0.4,0c0.9,0,1.6,0.2,2.1,0.6c0.9,0.5,1.2,1.1,1.2,1.1s2.2,0.2,1.3,4.9c0.3,0.1,0.5,0.5,0.2,1.8  c-0.3,1.2-0.7,1.5-0.9,1.5c-0.1,0-0.1,0-0.2-0.1c-0.1,0.5-0.3,1.1-0.5,1.6v1.8c0,0.1,0,0.1,0.1,0.2C54.1,33.2,57,34.6,59.6,36.8z   M96.8,55.2h-3.4c-1.2,0-2.1,1-2.1,2.1v2.6h0v2.1h0v2.6c0,1.2,1,2.1,2.1,2.1h3.4c1.2,0,2.1-1,2.1-2.1v-7.4  C99,56.1,98,55.2,96.8,55.2z M96.8,69h-3.4c-1.2,0-2.1,1-2.1,2.1v2.6h0v2.1h0v2.6c0,1.2,1,2.1,2.1,2.1h3.4c1.2,0,2.1-1,2.1-2.1v-7.4  C99,70,98,69,96.8,69z M96.8,41.3h-3.4c-1.2,0-2.1,1-2.1,2.1v2.6h0v2.1h0v2.6c0,1.2,1,2.1,2.1,2.1h3.4c1.2,0,2.1-1,2.1-2.1v-7.4  C99,42.3,98,41.3,96.8,41.3z M96.8,13.6h-3.4c-1.2,0-2.1,1-2.1,2.1v2.6h0v2.1h0v2.6c0,1.2,1,2.1,2.1,2.1h3.4c1.2,0,2.1-1,2.1-2.1  v-7.4C99,14.6,98,13.6,96.8,13.6z M96.8,27.5h-3.4c-1.2,0-2.1,1-2.1,2.1v2.6h0v2.1h0V37c0,1.2,1,2.1,2.1,2.1h3.4  c1.2,0,2.1-1,2.1-2.1v-7.4C99,28.5,98,27.5,96.8,27.5z M81.3,57.3c0-1.2-1-2.1-2.1-2.1h-3.4c-1.2,0-2.1,1-2.1,2.1v2.6h0v2.1h0v2.6  c0,1.2,1,2.1,2.1,2.1h3.4c1.2,0,2.1-1,2.1-2.1v-2.6h4.1v12.8c0,0.6,0.5,1.1,1.1,1.1h2.9v-2.1h-1.9V62.1h1.9v-2.1h-8.1V57.3z   M85.4,19.5v12.8h-4.1v-2.6c0-1.2-1-2.1-2.1-2.1h-3.4c-1.2,0-2.1,1-2.1,2.1v2.6h0v2.1h0V37c0,1.2,1,2.1,2.1,2.1h3.4  c1.2,0,2.1-1,2.1-2.1v-2.6h4.1v12.8c0,0.6,0.5,1.1,1.1,1.1h2.9v-2.1h-1.9V34.4h1.9v-2.1h-1.9V20.5h1.9v-2.1h-2.9  C85.8,18.4,85.4,18.9,85.4,19.5z M73.5,50.8c0,1.2,1,2.1,2.1,2.1h3.4c1.2,0,2.1-1,2.1-2.1v-7.4c0-1.2-1-2.1-2.1-2.1h-3.4  c-1.2,0-2.1,1-2.1,2.1v2.6h0v2.1h0V50.8z M67.1,33.2V46h-3.5v2.1h3.5V61c0,0.6,0.5,1.1,1.1,1.1h3.5v-2.1h-2.4V48.2h2.4V46h-2.4V34.3  h2.4v-2.1h-3.5C67.6,32.1,67.1,32.6,67.1,33.2z M8.8,29.6c0-1.2-1-2.1-2.1-2.1H3.2c-1.2,0-2.1,1-2.1,2.1V37c0,1.2,1,2.1,2.1,2.1h3.4  c1.2,0,2.1-1,2.1-2.1v-2.6h0v-2.1h0V29.6z M8.8,15.8c0-1.2-1-2.1-2.1-2.1H3.2c-1.2,0-2.1,1-2.1,2.1v7.4c0,1.2,1,2.1,2.1,2.1h3.4  c1.2,0,2.1-1,2.1-2.1v-2.6h0v-2.1h0V15.8z M8.8,43.5c0-1.2-1-2.1-2.1-2.1H3.2c-1.2,0-2.1,1-2.1,2.1v7.4C1,52,2,53,3.2,53h3.4  c1.2,0,2.1-1,2.1-2.1v-2.6h0v-2.1h0V43.5z M8.8,71.2c0-1.2-1-2.1-2.1-2.1H3.2C2,69,1,70,1,71.2v7.4c0,1.2,1,2.1,2.1,2.1h3.4  c1.2,0,2.1-1,2.1-2.1v-2.6h0v-2.1h0V71.2z M8.8,57.3c0-1.2-1-2.1-2.1-2.1H3.2c-1.2,0-2.1,1-2.1,2.1v7.4c0,1.2,1,2.1,2.1,2.1h3.4  c1.2,0,2.1-1,2.1-2.1v-2.6h0v-2.1h0V57.3z M26.5,29.6c0-1.2-1-2.1-2.1-2.1h-3.4c-1.2,0-2.1,1-2.1,2.1v2.6h-4.1V19.5  c0-0.6-0.5-1.1-1.1-1.1h-2.9v2.1h1.9v11.7h-1.9v2.1h8.1V37c0,1.2,1,2.1,2.1,2.1h3.4c1.2,0,2.1-1,2.1-2.1v-2.6h0v-2.1h0V29.6z   M26.5,57.3c0-1.2-1-2.1-2.1-2.1h-3.4c-1.2,0-2.1,1-2.1,2.1v2.6h-4.1V47.2c0-0.6-0.5-1.1-1.1-1.1h-2.9v2.1h1.9v11.7h-1.9v2.1h1.9  v11.7h-1.9v2.1h2.9c0.6,0,1.1-0.5,1.1-1.1V62.1h4.1v2.6c0,1.2,1,2.1,2.1,2.1h3.4c1.2,0,2.1-1,2.1-2.1v-2.6h0v-2.1h0V57.3z   M26.5,43.5c0-1.2-1-2.1-2.1-2.1h-3.4c-1.2,0-2.1,1-2.1,2.1v7.4c0,1.2,1,2.1,2.1,2.1h3.4c1.2,0,2.1-1,2.1-2.1v-2.6h0v-2.1h0V43.5z   M32.9,33.3c0-0.6-0.5-1.1-1.1-1.1h-3.5v2.1h2.4v11.7h-2.4v2.1h2.4V60h-2.4v2.1h3.5c0.6,0,1.1-0.5,1.1-1.1V48.3h3.5v-2.1h-3.5V33.3z  "></path></svg>