<svg xmlns="http://www.w3.org/2000/svg" xmlns:xlink="http://www.w3.org/1999/xlink" version="1.1" x="0px" y="0px" viewBox="0 0 100 100" enable-background="new 0 0 100 100" xml:space="preserve"><circle cx="16.075" cy="27.406" r="6.455"></circle><circle cx="33.111" cy="27.406" r="6.455"></circle><circle cx="24.342" cy="12.351" r="6.454"></circle><circle cx="41.77" cy="12.351" r="6.454"></circle><circle cx="58.3" cy="12.351" r="6.454"></circle><circle cx="74.749" cy="12.351" r="6.454"></circle><circle cx="66.784" cy="27.406" r="6.455"></circle><path d="M50.037,20.951c3.56,0,6.453,2.888,6.453,6.456c0,3.562-2.891,6.454-6.453,6.454c-3.57,0-6.455-2.89-6.455-6.454  C43.582,23.84,46.466,20.951,50.037,20.951z"></path><path d="M83.754,20.951c3.564,0,6.456,2.888,6.456,6.456c0,3.562-2.892,6.454-6.456,6.454c-3.57,0-6.455-2.89-6.455-6.454  C77.299,23.84,80.186,20.951,83.754,20.951z"></path><path d="M7.675,94.266h16.78V66.091h6.287L30.729,43.35c0-3.98-3.219-7.205-7.188-7.205H8.542c-3.971,0-7.192,3.225-7.192,7.205  L1.326,66.091h6.349V94.266z"></path><path d="M41.677,94.266h16.778V66.091h6.287L64.729,43.35c0-3.98-3.22-7.205-7.188-7.205H42.544c-3.971,0-7.192,3.225-7.192,7.205  l-0.023,22.741h6.349V94.266z"></path><path d="M75.395,94.266h16.78V66.091h6.287L98.449,43.35c0-3.98-3.22-7.205-7.188-7.205H76.262c-3.972,0-7.192,3.225-7.192,7.205  l-0.023,22.741h6.349V94.266z"></path></svg>