<svg xmlns="http://www.w3.org/2000/svg" xmlns:xlink="http://www.w3.org/1999/xlink" xmlns:sketch="http://www.bohemiancoding.com/sketch/ns" viewBox="0 0 16 10" version="1.1" x="0px" y="0px"><title>new_zealand_flag</title><description>Created with Sketch (http://www.bohemiancoding.com/sketch)</description><g stroke="none" stroke-width="1" fill="none" fill-rule="evenodd" sketch:type="MSPage"><path d="M0,0 L0,10 L16,10 L16,0 L0,0 Z M0,0.559016998 L0,0 L0.8944272,0 L3.2,1.440983 L3.2,0 L4.8,0 L4.8,1.440983 L7.1055728,0 L8,0 L8,0.559016998 L6.09442714,1.75 L8,1.75 L8,3.25 L6.0944272,3.25 L8,4.440983 L8,5 L7.10557301,5 L4.8,3.55901691 L4.8,5 L3.2,5 L3.2,3.55901691 L0.894426987,5 L0,5 L0,4.440983 L1.9055728,3.25 L0,3.25 L0,1.75 L1.90557286,1.75 L0,0.559016998 Z M5.24444444,3.25 L5.77777778,3.25 L8,4.66666667 L8,5 L5.24444444,3.25 Z M0.533333333,5 L3.2,3.25 L2.66666667,3.25 L0,5 L0.533333333,5 L0.533333333,5 L0.533333333,5 L0.533333333,5 Z M7.46666667,0 L4.8,1.75 L5.33333333,1.75 L8,0 L7.46666667,0 L7.46666667,0 L7.46666667,0 L7.46666667,0 Z M2.75555556,1.75 L2.22222222,1.75 L0,0.333333333 L0,0 L2.75555556,1.75 L2.75555556,1.75 L2.75555556,1.75 L2.75555556,1.75 Z M4.53333333,-1.67499365e-08 L4.53333333,1.99999998 L8,2 L8,3 L4.53333333,2.99999998 L4.53333333,4.99999998 L3.46666667,5 L3.46666667,3 L0,3 L0,2 L3.46666667,1.99999998 L3.46666667,6.34492459e-14 L4.53333333,-1.67499365e-08 Z M13.9555556,4.58333333 L14.1351483,5.19623108 L14.7555556,5.19623108 L14.2657378,5.57081275 L14.4453519,6.16666667 L13.9555556,5.79210625 L13.4657592,6.14962283 L13.6453519,5.57081275 L13.1555556,5.19623108 L13.7596284,5.19623108 L13.9555556,4.58333333 Z M12.0888889,7.83333333 L12.2684816,8.44623108 L12.8888889,8.44623108 L12.3990711,8.82081275 L12.5786852,9.41666667 L12.0888889,9.04210625 L11.5990925,9.39962283 L11.7786852,8.82081275 L11.2888889,8.44623108 L11.8929618,8.44623108 L12.0888889,7.83333333 Z M12.0888889,2.5 L12.2684816,3.11289774 L12.8888889,3.11289774 L12.3990711,3.48747942 L12.5786852,4.08333333 L12.0888889,3.70877291 L11.5990925,4.06628951 L11.7786852,3.48747942 L11.2888889,3.11289774 L11.8929618,3.11289774 L12.0888889,2.5 Z M10.2222222,4.75 L10.4018149,5.36289775 L11.0222222,5.36289775 L10.5324044,5.73747942 L10.7120186,6.33333333 L10.2222222,5.95877292 L9.73242587,6.3162895 L9.91201858,5.73747942 L9.42222222,5.36289775 L10.0262951,5.36289775 L10.2222222,4.75 Z" fill="#000000" sketch:type="MSShapeGroup"></path></g></svg>