<svg xmlns="http://www.w3.org/2000/svg" xmlns:xlink="http://www.w3.org/1999/xlink" version="1.1" x="0px" y="0px" viewBox="0 0 324.782 256.704" style="enable-background:new 0 0 324.782 256.704;" xml:space="preserve"><g><path d="M46.575,21.8c0.255,0.3,0.496,0.613,0.716,0.945c0.091,0.138,0.168,0.282,0.252,0.423c0.14,0.234,0.271,0.472,0.39,0.714   c0.307,0.623,0.545,1.27,0.713,1.936c0.366,1.435,0.418,2.943,0.116,4.439c-0.21,1.04-0.582,2.019-1.085,2.918   c3.486,1.622,8.37,2.635,13.788,2.635c8.341,0,15.417-2.395,18.052-5.733c0.33-0.417,0.596-0.848,0.779-1.292   c0.086-0.209,0.163-0.419,0.215-0.633c3.175,3.726,5.257,8.408,5.742,13.551c0.95-0.161,1.736-0.335,2.285-0.527   c6.749-2.362-1.013-8.774-1.013-8.774c0-33.41-25.648-32.398-25.648-32.398S44.13-0.677,38.167,18.336   c0.262-0.021,0.521-0.058,0.786-0.058C41.916,18.279,44.687,19.577,46.575,21.8z"></path><path d="M39.758,39.851c-0.131,0.7-0.232,1.412-0.296,2.134c-0.061,0.671-0.096,1.35-0.096,2.036c0,12.427,10.074,22.5,22.5,22.5   c12.427,0,22.5-10.073,22.5-22.5c0-0.685-0.036-1.363-0.096-2.033c-0.369-4.111-1.843-7.902-4.124-11.077   c-1.407,5.002-10.081,7.616-18.68,7.616c-5.76,0-11.554-1.175-15.181-3.45c-0.532,0.571-1.125,1.091-1.792,1.533   C42.837,37.709,41.273,38.786,39.758,39.851z"></path><path d="M92.551,74.059c-3.162-2.562-5.894-3.415-7.043-3.629c-0.938-0.186-1.867-0.188-2.761-0.052   c-0.504-0.104-1.027-0.158-1.563-0.158H42.55c-0.349,0-0.691,0.031-1.027,0.076c-2.502-0.153-9.619-0.783-15.794-2.597   c-3.426-0.972-6.494-2.372-8.083-3.636c-0.808-0.624-1.23-1.154-1.415-1.479c-0.178-0.341-0.216-0.453-0.231-0.876   c-0.002-0.481,0.144-1.557,1.139-3.39c0.473-0.874,1.145-1.903,2.034-3.062c0.96-1.25,2.173-2.649,3.688-4.181c0,0,0-0.001,0-0.001   l0.002-0.001c2.869-2.915,6.788-6.289,11.89-10.082c1.022-0.76,2.091-1.536,3.21-2.329c0.829-0.588,1.687-1.186,2.57-1.791   c0.924-0.634,1.871-1.275,2.855-1.929c0.481-0.32,0.915-0.685,1.302-1.082c0.485-0.497,0.891-1.05,1.224-1.638   c0.855-1.511,1.197-3.264,0.972-4.986c-0.094-0.723-0.286-1.436-0.584-2.126c-0.137-0.317-0.3-0.628-0.481-0.933   c-0.066-0.108-0.124-0.22-0.195-0.327c-0.225-0.339-0.478-0.648-0.743-0.941c-1.866-2.063-4.639-2.973-7.294-2.512   c-1.06,0.184-2.101,0.581-3.055,1.215c-10.156,6.754-17.625,12.714-23.066,18.227c0,0.001-0.001,0.001-0.002,0.002   c-0.001,0-0.001,0.001-0.001,0.001c-1.593,1.617-3.004,3.196-4.263,4.76c-1.64,2.035-3.013,4.042-4.116,6.065   C1.146,54.229,0,57.941,0,61.708c-0.019,3.416,1.014,6.731,2.664,9.362c2.934,4.646,7.141,7.329,11.3,9.3   c6.296,2.904,13.07,4.247,18.454,5.045c0.841,0.121,1.641,0.226,2.402,0.317v41.669v18.939v98c0,6.83,5.537,12.363,12.365,12.363   c6.826,0,12.363-5.533,12.363-12.363V154.07h4.635v90.271c0,6.83,5.537,12.363,12.365,12.363c6.827,0,12.363-5.533,12.363-12.363   v-98v-18.939V96.048c0.378,0.833,0.759,1.711,1.146,2.684c4.392,11.135,8.75,31.651,8.734,67.547c0,4.418,3.582,8.001,8.002,8.001   c4.417,0,7.999-3.583,7.999-8.001c-0.028-42.47-5.719-65.552-12.243-78.853C99.281,80.793,95.723,76.616,92.551,74.059z"></path><path d="M142.225,41.657c0.081,0.015,0.164,0.028,0.248,0.043c0.007-0.08,0.013-0.16,0.021-0.239   C142.403,41.526,142.316,41.591,142.225,41.657z"></path><path d="M151.57,21.8c0.254,0.3,0.496,0.613,0.716,0.945c0.092,0.138,0.168,0.282,0.252,0.423c0.14,0.234,0.27,0.472,0.39,0.714   c0.307,0.623,0.544,1.27,0.713,1.936c0.366,1.435,0.418,2.943,0.116,4.439c-0.21,1.04-0.582,2.019-1.086,2.918   c3.486,1.622,8.369,2.635,13.788,2.635c8.34,0,15.417-2.395,18.052-5.731c0.33-0.418,0.596-0.848,0.779-1.292   c0.087-0.209,0.163-0.419,0.215-0.634c3.175,3.727,5.257,8.408,5.742,13.551c0.95-0.161,1.736-0.335,2.285-0.527   c6.749-2.362-1.014-8.774-1.014-8.774c0-33.41-25.648-32.398-25.648-32.398s-17.747-0.681-23.711,18.333   c0.262-0.021,0.521-0.058,0.786-0.058C146.911,18.279,149.681,19.577,151.57,21.8z"></path><path d="M144.753,39.851c-0.131,0.7-0.231,1.412-0.296,2.134c-0.061,0.671-0.096,1.35-0.096,2.036c0,12.427,10.074,22.5,22.5,22.5   c12.427,0,22.5-10.073,22.5-22.5c0-0.685-0.036-1.363-0.096-2.033c-0.369-4.111-1.843-7.902-4.124-11.077   c-1.407,5.002-10.081,7.616-18.68,7.616c-5.76,0-11.554-1.175-15.181-3.45c-0.532,0.571-1.126,1.091-1.792,1.533   C147.831,37.709,146.268,38.786,144.753,39.851z"></path><path d="M197.546,74.059c-3.16-2.562-5.895-3.415-7.043-3.629c-0.938-0.186-1.868-0.188-2.761-0.052   c-0.504-0.104-1.027-0.158-1.563-0.158h-38.635c-0.349,0-0.69,0.031-1.027,0.076c-2.503-0.153-9.622-0.783-15.796-2.597   c-3.424-0.972-6.492-2.372-8.081-3.636c-0.808-0.624-1.23-1.154-1.415-1.479c-0.178-0.341-0.217-0.453-0.231-0.876   c-0.002-0.481,0.144-1.557,1.139-3.39c0.472-0.874,1.145-1.903,2.033-3.061c0.958-1.248,2.168-2.645,3.677-4.172   c0.004-0.004,0.009-0.008,0.013-0.012c2.869-2.915,6.788-6.289,11.89-10.082c1.022-0.76,2.091-1.536,3.211-2.329   c0.829-0.588,1.686-1.186,2.57-1.791c0.924-0.634,1.871-1.275,2.855-1.929c0.481-0.32,0.915-0.685,1.302-1.082   c0.485-0.497,0.892-1.05,1.225-1.638c0.855-1.511,1.196-3.264,0.972-4.986c-0.094-0.723-0.286-1.436-0.585-2.126   c-0.137-0.317-0.3-0.628-0.482-0.933c-0.065-0.108-0.123-0.22-0.194-0.327c-0.225-0.339-0.478-0.648-0.743-0.941   c-1.866-2.063-4.639-2.973-7.293-2.512c-1.061,0.184-2.101,0.581-3.055,1.215c-10.145,6.747-17.609,12.702-23.049,18.21   c-0.006,0.006-0.013,0.011-0.019,0.017c-1.593,1.618-3.005,3.198-4.264,4.762c-1.639,2.035-3.011,4.043-4.115,6.066   c-1.941,3.56-3.087,7.271-3.089,11.039c-0.017,3.416,1.016,6.731,2.667,9.362c2.934,4.646,7.141,7.329,11.301,9.3   c6.294,2.904,13.069,4.247,18.454,5.045c0.84,0.121,1.64,0.226,2.401,0.317v41.669v18.939v98c0,6.83,5.537,12.363,12.365,12.363   c6.826,0,12.363-5.533,12.363-12.363V154.07h4.635v90.271c0,6.83,5.537,12.363,12.365,12.363c6.826,0,12.363-5.533,12.363-12.363   v-98v-18.939V96.048c0.378,0.833,0.759,1.711,1.146,2.684c4.392,11.135,8.749,31.651,8.734,67.547c0,4.418,3.582,8.001,8.001,8.001   c4.418,0,7.999-3.583,7.999-8.001c-0.028-42.47-5.719-65.552-12.243-78.853C204.276,80.793,200.718,76.616,197.546,74.059z"></path><path d="M247.22,41.657c0.081,0.015,0.164,0.028,0.248,0.043c0.007-0.08,0.013-0.16,0.021-0.24   C247.398,41.526,247.311,41.591,247.22,41.657z"></path><path d="M256.565,21.8c0.254,0.3,0.495,0.613,0.716,0.945c0.092,0.138,0.169,0.282,0.253,0.424c0.14,0.233,0.271,0.471,0.39,0.713   c0.307,0.623,0.544,1.27,0.714,1.936c0.366,1.435,0.418,2.943,0.116,4.439c-0.21,1.04-0.582,2.019-1.086,2.918   c3.486,1.622,8.37,2.635,13.789,2.635c8.341,0,15.417-2.395,18.051-5.733c0.33-0.418,0.596-0.849,0.78-1.293   c0.086-0.209,0.163-0.418,0.214-0.632c3.175,3.726,5.257,8.408,5.742,13.551c0.95-0.161,1.736-0.335,2.285-0.527   c6.75-2.362-1.013-8.774-1.013-8.774c0-33.41-25.648-32.398-25.648-32.398s-17.748-0.681-23.711,18.333   c0.262-0.021,0.522-0.058,0.787-0.058C251.906,18.279,254.676,19.577,256.565,21.8z"></path><path d="M249.747,39.851c-0.131,0.701-0.231,1.412-0.296,2.134c-0.061,0.671-0.096,1.35-0.096,2.036   c0,12.427,10.074,22.5,22.5,22.5c12.428,0,22.501-10.073,22.501-22.5c0-0.685-0.036-1.363-0.096-2.033   c-0.369-4.111-1.843-7.902-4.124-11.077c-1.407,5.002-10.081,7.616-18.68,7.616c-5.76,0-11.554-1.175-15.182-3.449   c-0.531,0.57-1.125,1.09-1.791,1.532C252.826,37.71,251.262,38.786,249.747,39.851z"></path><path d="M302.54,74.059c-3.161-2.562-5.894-3.415-7.043-3.629c-0.938-0.186-1.867-0.188-2.761-0.052   c-0.504-0.104-1.027-0.158-1.563-0.158h-38.636c-0.349,0-0.69,0.031-1.027,0.076c-2.504-0.153-9.621-0.783-15.795-2.597   c-3.426-0.972-6.491-2.372-8.083-3.636c-0.808-0.624-1.23-1.154-1.413-1.479c-0.178-0.341-0.216-0.451-0.231-0.874   c-0.002-0.481,0.145-1.557,1.139-3.392c0.473-0.874,1.145-1.904,2.034-3.062c0.959-1.249,2.171-2.647,3.683-4.179   c0.001,0,0.001-0.001,0.002-0.002c0.001-0.001,0.001-0.001,0.002-0.002c2.869-2.915,6.788-6.289,11.891-10.082   c1.022-0.76,2.091-1.536,3.211-2.33c0.829-0.587,1.686-1.185,2.569-1.79c0.924-0.634,1.871-1.275,2.856-1.929   c0.481-0.32,0.915-0.685,1.302-1.082c0.485-0.497,0.891-1.05,1.224-1.638c0.855-1.511,1.197-3.265,0.972-4.987   c-0.094-0.722-0.287-1.435-0.584-2.125c-0.138-0.317-0.3-0.628-0.482-0.932c-0.065-0.109-0.123-0.221-0.195-0.328   c-0.225-0.339-0.478-0.648-0.743-0.941c-1.866-2.063-4.639-2.973-7.293-2.512c-1.061,0.185-2.101,0.581-3.055,1.215   c-10.145,6.747-17.609,12.702-23.048,18.21c-0.006,0.006-0.013,0.011-0.018,0.017c-1.594,1.619-3.006,3.198-4.265,4.763   c-1.639,2.035-3.012,4.043-4.117,6.065c-1.941,3.562-3.085,7.274-3.087,11.041c-0.019,3.414,1.016,6.729,2.667,9.36   c2.932,4.646,7.141,7.329,11.298,9.3c6.296,2.904,13.07,4.247,18.456,5.045c0.84,0.121,1.64,0.226,2.4,0.317v41.669v18.939v98   c0,6.83,5.537,12.363,12.365,12.363c6.826,0,12.363-5.533,12.363-12.363V154.07h4.635v90.271c0,6.83,5.537,12.363,12.365,12.363   c6.827,0,12.363-5.533,12.363-12.363v-98v-18.939V96.047c0.378,0.833,0.76,1.711,1.147,2.685   c4.392,11.135,8.749,31.651,8.734,67.547c0,4.418,3.581,8.001,8.001,8.001c4.418,0,7.999-3.583,7.999-8.001   c-0.027-42.47-5.719-65.552-12.243-78.853C309.271,80.793,305.713,76.616,302.54,74.059z"></path></g></svg>