<svg xmlns="http://www.w3.org/2000/svg" xmlns:xlink="http://www.w3.org/1999/xlink" version="1.1" x="0px" y="0px" viewBox="0 0 100 100" enable-background="new 0 0 100 100" xml:space="preserve"><rect x="18.471" y="47.729" width="16.031" height="16.031"></rect><rect x="39.312" y="47.729" width="16.031" height="16.031"></rect><rect x="18.471" y="18.506" width="16.031" height="16.032"></rect><g><path d="M78.162,31.302c-3.909,0-7.086,3.181-7.086,7.089c0,3.909,3.177,7.095,7.086,7.095c3.904,0,7.095-3.186,7.095-7.095   C85.258,34.483,82.066,31.302,78.162,31.302z"></path><path d="M71.014,98.599h14.772V73.796h5.534L91.31,53.777c0-3.505-2.832-6.344-6.329-6.344H71.776   c-3.495,0-6.332,2.838-6.332,6.344l-0.019,20.019h5.588V98.599L71.014,98.599z"></path></g><polygon points="14.502,67.138 14.502,44.407 55.343,44.407 55.343,38.449 14.502,38.449 14.502,18.506 8.544,18.506 8.544,98.599   14.502,98.599 14.502,73.096 49.813,73.096 49.813,98.599 55.771,98.599 55.771,67.138 "></polygon><rect x="46.889" y="18.565" transform="matrix(0.967 0.2549 -0.2549 0.967 8.5905 -13.1188)" width="16.031" height="16.032"></rect><g><polygon points="42.041,18.212 34.706,12.159 36.463,10.03 43.798,16.083 42.041,18.212  "></polygon><polygon points="45.833,11.438 42.298,2.002 44.883,1.034 48.419,10.47 45.833,11.438  "></polygon><polygon points="55.103,10.759 52.446,10.001 54.558,2.594 57.212,3.351 55.103,10.759  "></polygon></g></svg>