<svg xmlns="http://www.w3.org/2000/svg" data-name="Layer 1" viewBox="0 0 100 100" x="0px" y="0px"><title>top_five_risks_reversed</title><path d="M14.19,1V99H85.81V1Zm21,85.84a1.79,1.79,0,0,1-2.52,2.52L29,85.62l-3.75,3.75a1.83,1.83,0,0,1-2.52,0,1.79,1.79,0,0,1,0-2.52l3.75-3.75-3.75-3.75a1.79,1.79,0,1,1,2.52-2.52L29,80.57l3.75-3.75a1.79,1.79,0,0,1,2.52,2.52L31.48,83.1Zm0-16.55a1.79,1.79,0,0,1-2.52,2.52L29,69.07l-3.75,3.75a1.83,1.83,0,0,1-2.52,0,1.79,1.79,0,0,1,0-2.52l3.75-3.75L22.69,62.8a1.79,1.79,0,0,1,2.52-2.52L29,64l3.75-3.75a1.79,1.79,0,0,1,2.52,2.52l-3.75,3.75Zm0-24L31.48,50l3.75,3.75a1.79,1.79,0,0,1-2.52,2.52L29,52.52l-3.75,3.75a1.83,1.83,0,0,1-2.52,0,1.79,1.79,0,0,1,0-2.52L26.43,50l-3.75-3.75a1.79,1.79,0,0,1,2.52-2.52L29,47.48l3.75-3.75a1.79,1.79,0,0,1,2.52,2.52Zm0-9.05a1.79,1.79,0,0,1-2.52,2.52L29,36l-3.75,3.75a1.83,1.83,0,0,1-2.52,0,1.78,1.78,0,0,1,0-2.52l3.75-3.75L22.69,29.7a1.79,1.79,0,0,1,2.52-2.52L29,30.93l3.75-3.75a1.79,1.79,0,0,1,2.52,2.52l-3.75,3.75Zm0-16.55a1.79,1.79,0,0,1-2.52,2.52L29,19.43l-3.75,3.75a1.83,1.83,0,0,1-2.52,0,1.78,1.78,0,0,1,0-2.52l3.75-3.75-3.75-3.75a1.79,1.79,0,0,1,2.52-2.52L29,14.38l3.75-3.75a1.79,1.79,0,0,1,2.52,2.52L31.48,16.9ZM68.77,87.23H43.91a1.41,1.41,0,1,1,0-2.83H68.77a1.41,1.41,0,1,1,0,2.83Zm7.66-6H43.91a1.41,1.41,0,1,1,0-2.83H76.42a1.41,1.41,0,1,1,0,2.83Zm-33.92-12a1.41,1.41,0,0,1,1.41-1.41H68.77a1.41,1.41,0,1,1,0,2.83H43.91A1.41,1.41,0,0,1,42.5,69.26Zm33.92-4.59H43.91a1.41,1.41,0,1,1,0-2.83H76.42a1.41,1.41,0,1,1,0,2.83Zm-33.92-12a1.41,1.41,0,0,1,1.41-1.41H68.77a1.41,1.41,0,1,1,0,2.83H43.91A1.41,1.41,0,0,1,42.5,52.72Zm33.92-4.59H43.91a1.41,1.41,0,1,1,0-2.83H76.42a1.41,1.41,0,1,1,0,2.83Zm-33.92-12a1.41,1.41,0,0,1,1.41-1.41H68.77a1.41,1.41,0,1,1,0,2.83H43.91A1.41,1.41,0,0,1,42.5,36.17Zm33.92-4.59H43.91a1.41,1.41,0,1,1,0-2.83H76.42a1.41,1.41,0,1,1,0,2.83Zm-33.92-12a1.41,1.41,0,0,1,1.41-1.41H68.77a1.41,1.41,0,1,1,0,2.83H43.91A1.41,1.41,0,0,1,42.5,19.62ZM76.42,15H43.91a1.41,1.41,0,1,1,0-2.83H76.42a1.41,1.41,0,1,1,0,2.83Z"></path></svg>