<svg xmlns="http://www.w3.org/2000/svg" data-name="Layer 1" viewBox="0 0 100 100" x="0px" y="0px"><title>Artboard 1</title><path d="M40.12,10.88A9.88,9.88,0,1,1,50,20.77,9.88,9.88,0,0,1,40.12,10.88ZM11.55,33l13,10.24a4.42,4.42,0,0,0,5.55-.06l8.8-7.27v16H61.1v-16l8.8,7.27a4.42,4.42,0,0,0,5.55.06L88.45,33a4.54,4.54,0,0,0,1.18-5.88,4.42,4.42,0,0,0-6.51-1.17L72.78,34,62.39,25.47a4.4,4.4,0,0,0-2.81-1H40.42a4.4,4.4,0,0,0-2.81,1L27.22,34,16.88,25.9a4.42,4.42,0,0,0-6.51,1.17A4.54,4.54,0,0,0,11.55,33ZM40,66.66a10,10,0,1,0,10-10A10,10,0,0,0,40,66.66Zm-21.57,10a10,10,0,1,0-10-10A10,10,0,0,0,18.43,76.65Zm63.13-20a10,10,0,1,0,10,10A10,10,0,0,0,81.57,56.66Zm4,23.71h-8a13.42,13.42,0,0,0-11.78,7,13.42,13.42,0,0,0-11.78-7H46a13.42,13.42,0,0,0-11.78,7,13.42,13.42,0,0,0-11.78-7h-8A13.43,13.43,0,0,0,1,93.81V99H99V93.81A13.43,13.43,0,0,0,85.57,80.38Z"></path></svg>