<svg xmlns="http://www.w3.org/2000/svg" data-name="Layer 1" viewBox="0 0 100 100" x="0px" y="0px"><title>Artboard 1</title><path d="M9,10.37a9.54,9.54,0,1,1,9.54,9.54A9.54,9.54,0,0,1,9,10.37ZM2.66,99.17H27.36A2.14,2.14,0,0,0,29.51,97V89.53a10.3,10.3,0,0,0-10.3-10.3h-8.4A10.3,10.3,0,0,0,.51,89.53V97A2.14,2.14,0,0,0,2.66,99.17ZM6.29,67.64A8.72,8.72,0,1,0,15,58.91,8.72,8.72,0,0,0,6.29,67.64Zm82.91,11.6h-8.4a10.3,10.3,0,0,0-10.3,10.3V97a2.14,2.14,0,0,0,2.14,2.14H97.34A2.14,2.14,0,0,0,99.49,97V89.53A10.3,10.3,0,0,0,89.19,79.24Zm4.52-11.6A8.72,8.72,0,1,0,85,76.36,8.72,8.72,0,0,0,93.71,67.64ZM54.2,79.24H45.8a10.3,10.3,0,0,0-10.3,10.3V97a2.14,2.14,0,0,0,2.14,2.14H62.35A2.14,2.14,0,0,0,64.5,97V89.53A10.3,10.3,0,0,0,54.2,79.24ZM50,58.91a8.72,8.72,0,1,0,8.72,8.72A8.72,8.72,0,0,0,50,58.91ZM2.66,53H24a2.14,2.14,0,0,0,2.14-2.14V38.7l6.32,5.89a4.09,4.09,0,0,0,5.46.07L51.53,32.81a4.09,4.09,0,1,0-5.38-6.16L35.34,36.09c-4-3.7-10.26-9.6-11.61-10.89l-.27-.26a8.49,8.49,0,0,0-5.82-2.3H9A8.53,8.53,0,0,0,.51,31.17V50.86A2.14,2.14,0,0,0,2.66,53ZM96.57,36.12H58.72a2.92,2.92,0,1,0,0,5.84H96.57a2.92,2.92,0,0,0,0-5.84Zm0,11.63H45.49a2.92,2.92,0,1,0,0,5.84H96.57a2.92,2.92,0,1,0,0-5.84ZM38.93,7.08h25a2.92,2.92,0,0,0,2.92-2.92h0a2.92,2.92,0,0,0-2.92-2.92H39a3,3,0,0,0-2.93,2.31A2.92,2.92,0,0,0,38.93,7.08Zm0,11.63h22a2.92,2.92,0,0,0,2.92-2.92h0a2.92,2.92,0,0,0-2.92-2.92H39a3,3,0,0,0-2.93,2.31A2.92,2.92,0,0,0,38.93,18.71ZM83.33,30.24A14.55,14.55,0,0,0,99.42,17.6a1.6,1.6,0,0,0-1.57-1.81H85V2.93a1.6,1.6,0,0,0-1.81-1.57,14.55,14.55,0,0,0,.16,28.89Z"></path></svg>